<mxfile host="app.diagrams.net" agent="Mozilla/5.0 (Windows NT 10.0; Win64; x64) AppleWebKit/537.36 (KHTML, like Gecko) Chrome/131.0.0.0 Safari/537.36" version="26.0.10">
  <diagram name="Page-1" id="nwuoB_z_jj8ipdjm6UsE">
    <mxGraphModel dx="1050" dy="557" grid="1" gridSize="10" guides="1" tooltips="1" connect="1" arrows="1" fold="1" page="1" pageScale="1" pageWidth="827" pageHeight="1169" math="0" shadow="0">
      <root>
        <mxCell id="0" />
        <mxCell id="1" parent="0" />
        <mxCell id="Ej2dz7_klrV6oIsPlSR1-1" value="FIM" style="strokeWidth=2;html=1;shape=mxgraph.flowchart.start_1;whiteSpace=wrap;" vertex="1" parent="1">
          <mxGeometry x="364" y="660" width="100" height="60" as="geometry" />
        </mxCell>
        <mxCell id="Ej2dz7_klrV6oIsPlSR1-8" value="" style="edgeStyle=orthogonalEdgeStyle;rounded=0;orthogonalLoop=1;jettySize=auto;html=1;" edge="1" parent="1" source="Ej2dz7_klrV6oIsPlSR1-2" target="Ej2dz7_klrV6oIsPlSR1-3">
          <mxGeometry relative="1" as="geometry" />
        </mxCell>
        <mxCell id="Ej2dz7_klrV6oIsPlSR1-2" value="INICIO" style="strokeWidth=2;html=1;shape=mxgraph.flowchart.start_1;whiteSpace=wrap;" vertex="1" parent="1">
          <mxGeometry x="364" y="30" width="100" height="60" as="geometry" />
        </mxCell>
        <mxCell id="Ej2dz7_klrV6oIsPlSR1-9" value="" style="edgeStyle=orthogonalEdgeStyle;rounded=0;orthogonalLoop=1;jettySize=auto;html=1;" edge="1" parent="1" source="Ej2dz7_klrV6oIsPlSR1-3" target="Ej2dz7_klrV6oIsPlSR1-4">
          <mxGeometry relative="1" as="geometry" />
        </mxCell>
        <mxCell id="Ej2dz7_klrV6oIsPlSR1-3" value="NUM 1" style="shape=parallelogram;html=1;strokeWidth=2;perimeter=parallelogramPerimeter;whiteSpace=wrap;rounded=1;arcSize=12;size=0.23;" vertex="1" parent="1">
          <mxGeometry x="364" y="120" width="100" height="60" as="geometry" />
        </mxCell>
        <mxCell id="Ej2dz7_klrV6oIsPlSR1-10" value="" style="edgeStyle=orthogonalEdgeStyle;rounded=0;orthogonalLoop=1;jettySize=auto;html=1;" edge="1" parent="1" source="Ej2dz7_klrV6oIsPlSR1-4" target="Ej2dz7_klrV6oIsPlSR1-5">
          <mxGeometry relative="1" as="geometry" />
        </mxCell>
        <mxCell id="Ej2dz7_klrV6oIsPlSR1-4" value="NUM 2" style="shape=parallelogram;html=1;strokeWidth=2;perimeter=parallelogramPerimeter;whiteSpace=wrap;rounded=1;arcSize=12;size=0.23;" vertex="1" parent="1">
          <mxGeometry x="364" y="210" width="100" height="60" as="geometry" />
        </mxCell>
        <mxCell id="Ej2dz7_klrV6oIsPlSR1-11" value="" style="edgeStyle=orthogonalEdgeStyle;rounded=0;orthogonalLoop=1;jettySize=auto;html=1;" edge="1" parent="1" source="Ej2dz7_klrV6oIsPlSR1-5" target="Ej2dz7_klrV6oIsPlSR1-6">
          <mxGeometry relative="1" as="geometry" />
        </mxCell>
        <mxCell id="Ej2dz7_klrV6oIsPlSR1-5" value="NUM 3" style="shape=parallelogram;html=1;strokeWidth=2;perimeter=parallelogramPerimeter;whiteSpace=wrap;rounded=1;arcSize=12;size=0.23;" vertex="1" parent="1">
          <mxGeometry x="364" y="300" width="100" height="60" as="geometry" />
        </mxCell>
        <mxCell id="Ej2dz7_klrV6oIsPlSR1-14" value="" style="edgeStyle=orthogonalEdgeStyle;rounded=0;orthogonalLoop=1;jettySize=auto;html=1;" edge="1" parent="1" source="Ej2dz7_klrV6oIsPlSR1-6" target="Ej2dz7_klrV6oIsPlSR1-12">
          <mxGeometry relative="1" as="geometry" />
        </mxCell>
        <mxCell id="Ej2dz7_klrV6oIsPlSR1-6" value="NUM 4" style="shape=parallelogram;html=1;strokeWidth=2;perimeter=parallelogramPerimeter;whiteSpace=wrap;rounded=1;arcSize=12;size=0.23;" vertex="1" parent="1">
          <mxGeometry x="364" y="390" width="100" height="60" as="geometry" />
        </mxCell>
        <mxCell id="Ej2dz7_klrV6oIsPlSR1-15" value="" style="edgeStyle=orthogonalEdgeStyle;rounded=0;orthogonalLoop=1;jettySize=auto;html=1;" edge="1" parent="1" source="Ej2dz7_klrV6oIsPlSR1-12" target="Ej2dz7_klrV6oIsPlSR1-13">
          <mxGeometry relative="1" as="geometry" />
        </mxCell>
        <mxCell id="Ej2dz7_klrV6oIsPlSR1-12" value="&lt;font style=&quot;font-size: 10px;&quot;&gt;RESULTADO = (NUM1 * NUM1) + (NUM2 * NUM2) + (NUM3 * NUM3) + (NUM4 * NUM4)&lt;/font&gt;" style="rounded=1;whiteSpace=wrap;html=1;absoluteArcSize=1;arcSize=14;strokeWidth=2;" vertex="1" parent="1">
          <mxGeometry x="299" y="490" width="229" height="40" as="geometry" />
        </mxCell>
        <mxCell id="Ej2dz7_klrV6oIsPlSR1-16" value="" style="edgeStyle=orthogonalEdgeStyle;rounded=0;orthogonalLoop=1;jettySize=auto;html=1;" edge="1" parent="1" source="Ej2dz7_klrV6oIsPlSR1-13" target="Ej2dz7_klrV6oIsPlSR1-1">
          <mxGeometry relative="1" as="geometry" />
        </mxCell>
        <mxCell id="Ej2dz7_klrV6oIsPlSR1-13" value="RESULTADO" style="strokeWidth=2;html=1;shape=mxgraph.flowchart.display;whiteSpace=wrap;" vertex="1" parent="1">
          <mxGeometry x="364" y="570" width="100" height="60" as="geometry" />
        </mxCell>
      </root>
    </mxGraphModel>
  </diagram>
</mxfile>
